<svg width="247" height="26" viewBox="0 0 247 26" fill="none" xmlns="http://www.w3.org/2000/svg">
<path d="M131.289 16.2948C130.611 15.9128 128.096 14.5488 126.407 12.1448C125.542 10.9958 124.899 9.69076 124.523 8.66476C124.149 7.63776 123.996 6.91577 123.996 6.91577C123.996 6.91577 123.909 7.63978 123.946 8.79778C123.985 9.94978 124.205 11.5418 124.755 13.1358C125.287 14.7328 126.128 16.3248 127.043 17.5088C127.945 18.7048 128.871 19.5198 129.339 19.8158C131.347 21.0008 132.596 17.0628 131.289 16.2948Z" fill="#03060E"/>
<path d="M122.296 8.13184C122.296 8.13184 122.112 8.73484 121.702 9.55884C121.29 10.3818 120.611 11.3918 119.753 12.2108C118.053 13.9558 115.814 14.5458 115.241 14.7178C114.147 15.0738 114.552 19.2358 116.526 18.5848C116.981 18.4168 117.912 17.8588 118.843 16.9428C119.785 16.0418 120.681 14.7538 121.275 13.4238C121.887 12.0978 122.176 10.7358 122.265 9.74783C122.352 8.75383 122.296 8.13184 122.296 8.13184Z" fill="#03060E"/>
<path d="M124.281 18.4567C123.641 16.0077 123.276 13.6357 123.276 13.6357C123.276 13.6357 122.694 15.9517 122.399 18.5967C122.07 21.2317 122.079 24.1737 122.254 25.0277C122.601 26.7617 126.254 25.7267 125.948 24.1967C125.792 23.4227 124.891 20.9207 124.281 18.4567Z" fill="#03060E"/>
<path d="M245.831 6.29881C244.04 6.29881 242.545 7.54681 242.082 7.97681C239.084 7.87981 236.085 7.79681 233.087 7.69781L219.732 7.45081C210.829 7.30981 201.926 7.31681 193.023 7.24781C184.12 7.32181 175.216 7.3078 166.313 7.4538C160.554 7.5448 154.794 7.6718 149.035 7.8328C149.066 7.2838 149.057 6.73681 148.959 6.21481C148.289 2.88481 145.963 1.33981 144.463 0.923806C142.88 0.468806 141.457 0.902816 140.511 1.50282C139.537 2.11082 138.952 2.92981 138.641 3.63581C138.032 5.11381 138.463 5.97581 138.885 6.07581C139.354 6.21181 139.898 5.80782 140.641 5.43382C141.357 5.06682 142.464 4.59881 143.504 4.90081C143.997 5.01081 145.092 5.6788 145.429 7.0398C145.492 7.3058 145.508 7.61581 145.48 7.94381C143.521 8.00681 141.562 8.04981 139.603 8.12981C141.543 8.20881 143.483 8.2508 145.423 8.31381C145.358 8.6378 145.255 8.97281 145.073 9.31281C144.64 10.1398 143.836 10.9638 142.853 11.3888C140.805 12.3238 137.838 11.7348 135.153 10.1738C134.975 10.0748 134.799 9.94981 134.622 9.84481C134.902 9.65581 135.179 9.42981 135.425 9.11581C136.087 8.29981 136.384 6.9488 136.041 5.6238C135.867 4.9648 135.54 4.30181 135.016 3.77581C134.489 3.24281 133.807 2.9228 133.115 2.7228C131.724 2.3648 130.308 2.2078 128.767 2.1348C127.238 2.0808 125.624 2.18781 123.994 2.57581C123.662 2.65181 123.333 2.75181 123.004 2.85481C122.675 2.75181 122.346 2.65181 122.014 2.57581C120.385 2.18781 118.77 2.0808 117.242 2.1348C115.702 2.2078 114.286 2.3648 112.895 2.7228C112.203 2.9228 111.521 3.24281 110.994 3.77581C110.471 4.30181 110.143 4.9648 109.969 5.6238C109.626 6.9498 109.922 8.29981 110.585 9.11581C110.831 9.42981 111.107 9.65581 111.388 9.84481C111.211 9.94981 111.035 10.0758 110.857 10.1738C108.172 11.7348 105.205 12.3248 103.157 11.3888C102.174 10.9638 101.371 10.1398 100.938 9.31281C100.765 8.99081 100.666 8.67481 100.599 8.36681C102.831 8.30181 105.061 8.22981 107.292 8.12981C105.038 8.02781 102.783 7.95582 100.529 7.89082C100.508 7.58382 100.522 7.29181 100.582 7.04081C100.918 5.67981 102.013 5.0118 102.507 4.9018C103.547 4.5998 104.653 5.06781 105.37 5.43481C106.113 5.80781 106.657 6.21181 107.125 6.07681C107.549 5.97681 107.98 5.1148 107.371 3.6368C107.059 2.9298 106.475 2.11181 105.501 1.50381C104.555 0.903808 103.13 0.470813 101.548 0.924813C100.049 1.33981 97.7223 2.88581 97.0528 6.21581C96.9575 6.72381 96.9455 7.2538 96.9721 7.7878C95.9606 7.7588 94.949 7.73181 93.9374 7.69881L80.5826 7.45181C71.6794 7.31081 62.7762 7.3178 53.873 7.2488C44.9698 7.3228 36.0666 7.30881 27.1624 7.45481C19.7523 7.57281 12.343 7.73682 4.93287 7.98982C4.48533 7.57182 2.97853 6.29881 1.17001 6.29881C-0.988841 6.29881 0.500532 7.11881 0.502367 8.12981C0.485859 8.13081 0.469336 8.13081 0.452828 8.13181C0.469336 8.13281 0.485859 8.13281 0.502367 8.13381C0.500532 9.14581 -0.988841 9.96481 1.17001 9.96481C2.97853 9.96481 4.48533 8.69181 4.93287 8.27381C12.343 8.52681 19.7523 8.69181 27.1624 8.80981C36.0657 8.95581 44.9689 8.94182 53.873 9.01582C62.7762 8.94682 71.6794 8.95381 80.5826 8.81281L93.9374 8.5658C94.9719 8.5318 96.0073 8.50382 97.0418 8.47482C97.1867 9.46782 97.5105 10.4498 98.0396 11.3048C98.9687 12.8178 100.356 14.0328 102.083 14.6588C105.556 15.8828 109.23 14.5568 112.112 12.6328C115.055 10.6968 117.521 8.18282 120.2 6.33682C121.095 5.68282 122.041 5.19181 123.004 4.76981C123.967 5.19181 124.914 5.68282 125.808 6.33682C128.487 8.18382 130.952 10.6968 133.896 12.6328C136.778 14.5568 140.452 15.8818 143.925 14.6588C145.652 14.0328 147.039 12.8178 147.968 11.3048C148.507 10.4368 148.831 9.43781 148.972 8.42881C154.751 8.59081 160.531 8.71781 166.31 8.80981C175.214 8.95581 184.117 8.94182 193.02 9.01582C201.923 8.94682 210.826 8.95381 219.73 8.81281L233.084 8.5658C236.082 8.4668 239.081 8.38381 242.079 8.28681C242.543 8.71681 244.036 9.96481 245.828 9.96481C247.989 9.96481 246.496 9.14381 246.496 8.13181C246.496 7.11981 247.991 6.29881 245.831 6.29881ZM119.252 4.55981C116.537 6.16081 114.113 8.18481 111.646 9.68781C111.361 9.47981 111.086 9.22381 110.859 8.88381C110.325 8.11681 110.162 6.92382 110.531 5.82182C110.886 4.68282 111.828 3.85481 113.09 3.65481C114.346 3.43581 115.801 3.38581 117.238 3.43881C118.301 3.47581 119.372 3.65581 120.438 3.90981C120.036 4.11281 119.64 4.32981 119.252 4.55981ZM125.573 3.90881C126.638 3.65481 127.71 3.47481 128.773 3.43781C130.21 3.38481 131.665 3.43582 132.921 3.65382C134.183 3.85382 135.124 4.68181 135.479 5.82081C135.849 6.92281 135.686 8.1158 135.152 8.8828C134.924 9.22281 134.65 9.47881 134.365 9.68681C131.898 8.18381 129.474 6.15982 126.759 4.55882C126.371 4.32982 125.974 4.11281 125.573 3.90881Z" fill="#03060E"/>
</svg>
