<svg width="142" height="33" viewBox="0 0 142 33" fill="none" xmlns="http://www.w3.org/2000/svg">
<path d="M140.869 30.7156C140.37 30.334 138.272 29.0553 137.275 28.224C136.279 27.395 134.4 25.7925 133.134 26.1493C133.134 26.1493 132.858 24.2518 130.478 24.2518C130.478 24.2518 127.795 24.1631 127.544 27.098C127.544 27.098 124.378 27.5455 122.707 28.0468C121.24 28.4901 119.361 28.6718 119.361 28.6718C119.361 28.6718 120.285 27.989 120.136 27.1289C120.024 26.5062 120.523 26.2689 120.523 26.2689C120.523 26.2689 121.591 25.9327 121.7 24.8087C121.749 24.3013 121.662 23.301 120.831 22.8061C121.445 22.2801 121.661 21.4551 121.496 20.6487C121.22 19.2854 119.93 18.5408 118.701 18.7327C118.701 18.7327 118.715 17.3916 117.352 16.8801C116.854 16.6882 115.67 16.3747 114.66 17.5184C114.66 17.5184 114.31 16.3624 112.641 16.5104C111.493 16.6135 110.926 17.6236 111.147 18.8565C111.147 18.8565 109.793 18.7719 109.255 20.2609C108.69 21.8139 110.151 22.7647 110.151 22.7647C110.151 22.7647 109.435 23.3608 109.628 24.5179C109.628 24.5179 105.148 23.2433 100.777 19.9475C100.89 19.9785 101.002 19.9886 101.109 20.0072C101.661 20.0504 102.23 19.9805 102.749 19.7783C103.096 19.6421 103.418 19.4401 103.681 19.1555C103.941 18.8646 104.283 18.3779 104.376 17.9758C104.47 17.569 104.508 17.0858 104.37 16.6821C104.283 16.4284 104.098 16.1737 103.891 16.0328C103.212 15.5621 102.162 15.8761 101.995 16.779C101.814 17.7978 102.698 18.1839 103.506 18.0396C103.746 17.9985 103.653 18.2315 103.654 18.2315C103.687 18.2315 103.431 18.6977 103.155 18.8852C102.768 19.1471 102.312 19.3039 101.855 19.3431C100.63 19.4483 99.59 18.7717 98.4978 18.3201C96.5654 17.5225 94.5934 16.8532 92.5966 16.2825C90.5497 15.6972 88.4605 15.3063 86.3502 15.1197C83.9283 14.9077 81.4795 14.7021 79.0462 14.7021C78.0214 14.7021 72.9355 14.2854 71.5261 11.9141C71.5261 11.9141 72.6298 10.7261 72.6298 9.27062C72.6298 8.6802 72.6298 7.1396 71.3002 6.33264V6.04288C71.3002 6.04288 71.9896 5.62614 71.7992 4.25985C71.7271 3.74115 71.3569 -0.333814 70.9993 0.0219745C70.6416 -0.333814 70.2734 3.74115 70.1993 4.25985C70.0089 5.62614 70.6974 6.04288 70.6974 6.04288V6.33264C69.3687 7.1396 69.3687 8.6802 69.3687 9.27062C69.3687 10.7262 70.4714 11.9141 70.4714 11.9141C69.0629 14.2855 63.976 14.7021 62.9521 14.7021C60.5187 14.7021 58.07 14.9077 55.6482 15.1197C53.5379 15.3063 51.4487 15.6972 49.4008 16.2825C47.404 16.8532 45.4331 17.5225 43.4986 18.3201C42.4093 18.7719 41.3691 19.4483 40.1366 19.3431C39.6875 19.3039 39.2319 19.1471 38.8435 18.8852C38.5675 18.6975 38.3119 18.2315 38.3445 18.2315C38.3474 18.2315 38.2531 17.9985 38.4925 18.0396C39.302 18.1839 40.1866 17.7978 40.0039 16.779C39.8385 15.8761 38.7868 15.5621 38.1089 16.0328C37.9041 16.1736 37.7147 16.4283 37.6281 16.6821C37.4907 17.0858 37.5281 17.569 37.6233 17.9758C37.7156 18.3779 38.0578 18.8648 38.3212 19.1555C38.5809 19.4401 38.901 19.6423 39.248 19.7783C39.7672 19.9805 40.3373 20.0506 40.8892 20.0072C40.9987 19.9886 41.1084 19.9783 41.2218 19.9475C36.8502 23.2434 32.3699 24.5179 32.3699 24.5179C32.5622 23.3608 31.847 22.7647 31.847 22.7647C31.847 22.7647 33.3055 21.8139 32.745 20.2609C32.2047 18.7719 30.852 18.8565 30.852 18.8565C31.0721 17.6236 30.5079 16.6135 29.3617 16.5104C27.6878 16.3624 27.3388 17.5184 27.3388 17.5184C26.3285 16.3747 25.1479 16.6882 24.6459 16.8801C23.2836 17.3914 23.3028 18.7327 23.3028 18.7327C22.0683 18.5408 20.7782 19.2855 20.5022 20.6487C20.3378 21.4551 20.5551 22.2801 21.1666 22.8061C20.3368 23.301 20.2495 24.3013 20.2984 24.8087C20.4119 25.9327 21.4751 26.2689 21.4751 26.2689C21.4751 26.2689 21.9741 26.5062 21.8617 27.1289C21.7136 27.989 22.6404 28.6718 22.6404 28.6718C22.6404 28.6718 20.7589 28.4903 19.2917 28.0468C17.6198 27.5455 14.4548 27.098 14.4548 27.098C14.2048 24.1631 11.5206 24.2518 11.5206 24.2518C9.14209 24.2518 8.86794 26.1493 8.86794 26.1493C7.5979 25.7925 5.71737 27.395 4.72335 28.224C3.72635 29.0553 1.62952 30.334 1.12954 30.7156C-0.586599 32.0211 0.574793 31.9634 0.574793 31.9634C1.14589 31.5385 1.7487 31.1446 2.35919 30.7837C3.04376 30.3814 3.7484 30.0103 4.45613 29.6658C6.82698 28.5273 9.32766 27.8219 11.9293 27.826C13.6052 27.826 15.2731 28.0673 16.9325 28.3025C17.7094 28.4158 18.5016 28.5107 19.265 28.7005C19.265 28.7005 18.1804 29.4843 18.3267 30.6867C18.4353 31.6065 18.8775 32.4088 20.9282 32.5284C20.9282 32.5284 20.3129 30.334 22.0839 29.707C22.7491 29.4761 23.526 29.4225 24.1308 29.5895C26.8102 30.334 29.085 30.5693 31.5828 30.2846C32.3942 30.1918 33.2278 30.0824 34.0085 29.8557C35.7564 29.3421 37.4763 28.6656 39.1195 27.8427C39.1195 27.8427 38.4368 29.9258 39.0598 31.0127C39.2868 31.4005 40.2636 31.8646 41.0509 31.1014C41.5538 30.625 41.5326 29.6308 40.8337 29.3504C40.1654 29.0905 39.5406 29.9444 39.5877 29.0554C39.6212 28.4552 39.7674 27.8426 40.178 27.4074C40.6317 26.9351 41.2499 26.6546 41.8191 26.3679C42.6498 25.9472 43.4642 25.4832 44.291 25.048C44.4409 24.9676 44.5909 24.8831 44.7429 24.8087C44.8101 25.3387 44.5391 26.5949 46.8878 26.7454C46.8878 26.7454 46.2331 25.3387 47.5011 23.9734C48.7068 22.676 50.3537 22.2223 51.9776 21.7914C51.9776 21.7914 51.6728 22.5586 52.0334 23.4228C52.0334 23.4228 53.689 21.7914 56.3147 21.3459C56.7559 21.2696 57.8356 21.1086 59.8594 21.4615C59.8594 21.4615 56.6251 21.6738 51.9834 26.3309C50.8576 27.457 49.4241 27.5147 49.4241 27.5147C49.9221 28.1664 51.2873 28.5211 52.8381 28.1066C52.8381 28.1066 53.7581 30.4765 55.1542 30.7486C55.6224 30.8352 56.5482 30.73 56.7578 29.707C56.9424 28.8202 56.2097 28.317 55.6253 28.317C55.0465 28.317 54.6177 28.6801 54.5504 29.1151C54.4965 29.4225 54.4936 29.5606 54.3014 29.4142C54.1061 29.2616 52.8379 27.5744 54.4936 25.2026C54.882 24.6436 59.1383 20.1001 63.9752 23.0391C63.9214 23.004 63.7281 23.0823 63.6761 23.0947C63.4204 23.171 63.157 23.2659 62.9119 23.3814C62.2667 23.7094 61.6369 24.3219 61.4216 25.0664C61.1466 25.9883 61.5426 27.1681 62.5513 27.2568C63.2108 27.3145 63.7097 26.7598 63.7819 26.3555C63.8886 25.7719 63.6694 25.0067 63.0377 24.9035C61.8263 24.7077 63.6165 22.9484 65.6356 23.9239C66.568 24.3796 68.9515 26.0914 69.8927 28.552C69.8927 28.552 68.8168 29.2924 68.9515 30.8082C69.0428 31.8003 69.7677 32.7346 70.9994 32.7346C72.231 32.7346 72.9549 31.8004 73.0463 30.8082C73.1818 29.2924 72.106 28.552 72.106 28.552C73.0463 26.0914 75.4306 24.3796 76.3642 23.9239C78.3822 22.9483 80.1715 24.7077 78.961 24.9035C78.3293 25.0067 78.1121 25.7718 78.217 26.3555C78.2911 26.7598 78.788 27.3146 79.4515 27.2568C80.4561 27.1681 80.8542 25.9885 80.5802 25.0664C80.3619 24.3219 79.7311 23.7094 79.09 23.3814C78.8419 23.2658 78.5785 23.171 78.3228 23.0947C78.2708 23.0823 78.0805 23.004 78.0237 23.0391C82.8597 20.1001 87.1159 24.6436 87.5053 25.2026C89.1658 27.5744 87.8918 29.2616 87.6975 29.4142C87.5053 29.5606 87.5024 29.4224 87.4485 29.1151C87.3803 28.6799 86.9524 28.317 86.3736 28.317C85.7891 28.317 85.0565 28.8203 85.2411 29.707C85.4507 30.73 86.3765 30.8352 86.8447 30.7486C88.2436 30.4763 89.1657 28.1066 89.1657 28.1066C90.7163 28.5212 92.0769 28.1664 92.5739 27.5147C92.5739 27.5147 91.1403 27.457 90.0155 26.3309C85.3728 21.6738 82.1395 21.4615 82.1395 21.4615C84.1623 21.1088 85.2429 21.2696 85.6842 21.3459C88.3099 21.7914 89.9674 23.4228 89.9674 23.4228C90.3289 22.5586 90.0213 21.7914 90.0213 21.7914C91.6452 22.2225 93.2902 22.676 94.4996 23.9734C95.7658 25.3387 95.1093 26.7454 95.1093 26.7454C97.4589 26.5947 97.1879 25.3387 97.256 24.8087C97.4079 24.8829 97.5579 24.9676 97.7069 25.048C98.5339 25.4832 99.3491 25.9472 100.181 26.3679C100.748 26.6546 101.367 26.9351 101.822 27.4074C102.231 27.8426 102.379 28.4552 102.412 29.0554C102.46 29.9444 101.835 29.0905 101.165 29.3504C100.467 29.6308 100.447 30.625 100.948 31.1014C101.736 31.8646 102.712 31.4005 102.939 31.0127C103.564 29.9258 102.879 27.8427 102.879 27.8427C104.523 28.6657 106.245 29.3421 107.99 29.8557C108.77 30.0825 109.604 30.1918 110.418 30.2846C112.913 30.5693 115.19 30.3341 117.87 29.5895C118.472 29.4224 119.25 29.4761 119.915 29.707C121.685 30.3341 121.071 32.5284 121.071 32.5284C123.121 32.4088 123.564 31.6065 123.677 30.6867C123.818 29.4843 122.733 28.7005 122.733 28.7005C123.501 28.5107 124.289 28.4159 125.066 28.3025C126.725 28.0673 128.394 27.826 130.07 27.826C132.67 27.8219 135.172 28.5273 137.543 29.6658C138.253 30.0103 138.954 30.3814 139.641 30.7837C140.252 31.1447 140.853 31.5385 141.428 31.9634C141.428 31.9634 142.585 32.0211 140.869 30.7156ZM47.8954 20.2568C49.9193 19.4029 52.0353 18.7554 54.1965 18.4811C55.4157 18.3388 56.6722 18.3058 57.9048 18.4151C60.1007 18.6192 62.2591 19.3618 64.1924 20.496C64.7415 20.8178 65.276 21.1726 65.7856 21.5561C66.9344 22.4182 68.0411 23.3731 68.9476 24.5177C69.3967 25.0849 69.7803 25.7284 70.0542 26.4112C70.1753 26.7308 70.284 27.0587 70.3714 27.3908C70.457 27.7208 70.4417 28.158 70.557 28.4613C70.557 28.4613 68.7899 23.7795 62.2627 21.4901C62.2627 21.4901 58.2026 19.6257 51.3112 21.3767C48.1875 22.1666 45.185 23.7155 42.3565 25.3077C41.3797 25.8564 40.3943 26.3947 39.3819 26.867C37.1888 27.8984 34.8834 28.913 32.5144 29.3667C30.4097 29.7669 26.1757 29.8246 24.8825 27.6075C24.8825 27.6075 24.0817 28.6861 23.051 28.224C22.3493 27.9085 21.9973 26.8237 22.7473 25.9327C22.7473 25.9327 21.3705 26.0009 20.9522 24.9035C20.8129 24.5467 20.7802 23.1216 22.5877 22.9484C22.2628 22.9752 20.6321 21.8739 21.2216 20.5518C21.8359 19.1493 23.5789 19.0916 24.4529 20.0879C24.4529 20.0879 22.9732 18.1842 24.9596 17.4015C25.3334 17.2567 26.7333 17.0742 27.339 18.9164C27.339 18.9164 27.6572 17.1531 28.9995 17.1618C29.8301 17.169 30.7328 17.9656 30.0753 19.7146C30.0753 19.7146 31.6886 18.9761 32.2048 20.5746C32.4057 21.1913 32.2048 21.9337 31.0723 22.6226C31.0723 22.6226 32.1741 23.6579 31.5963 24.7551C31.5963 24.7551 28.135 25.5719 28.8341 24.1322C29.2216 23.3341 28.7677 21.8059 27.2526 21.6428C25.3749 21.4387 24.3808 23.8064 25.1538 25.1407C25.5201 25.7678 26.4824 27.2176 29.4918 27.395C31.0406 27.4878 34.0316 26.832 35.1392 26.3844C36.2467 25.943 39.0598 24.755 43.4622 22.4141C44.9141 21.6407 46.3889 20.8982 47.8954 20.2568ZM45.4803 19.8526C45.4803 20.4178 45.0486 20.8735 44.5247 20.8735C43.9988 20.8735 43.5739 20.4178 43.5739 19.8526C43.5739 19.2835 43.9988 18.8297 44.5247 18.8297C45.0486 18.8297 45.4803 19.2834 45.4803 19.8526ZM94.2534 18.7637C93.6082 18.5286 92.4892 18.3285 91.8238 18.2088C88.7954 17.6453 85.5045 17.3575 82.4682 17.9551C80.3771 18.3718 78.2169 19.3411 76.4295 20.5826C74.0645 22.2243 71.2445 25.0211 70.9994 27.8095C70.7542 25.021 67.9343 22.2243 65.5683 20.5826C63.782 19.341 61.6236 18.3717 59.5305 17.9551C56.4943 17.3575 53.2034 17.6453 50.1758 18.2088C49.5058 18.3285 48.3934 18.5284 47.7454 18.7637C47.8674 18.7203 48.0635 18.4563 48.1761 18.3759C48.6473 18.0438 49.15 17.7721 49.6586 17.5163C51.0999 16.7862 52.6285 16.3294 54.2081 16.055C55.107 15.8978 56.0252 15.7483 56.9337 15.6492C59.5536 15.3692 62.1552 15.5343 64.7704 15.2125C66.5518 14.9896 68.4728 14.555 69.963 13.4285C70.3523 13.1325 70.7542 12.7123 70.9994 12.2714C71.2445 12.7123 71.6456 13.1325 72.0358 13.4285C73.526 14.555 75.447 14.9898 77.2285 15.2125C79.8436 15.5342 82.4442 15.3692 85.065 15.6492C85.9783 15.7483 86.8918 15.8978 87.7955 16.055C89.3655 16.3294 90.898 16.7862 92.3401 17.5163C92.8478 17.7721 93.3515 18.0438 93.8226 18.3759C93.937 18.4562 94.1312 18.7202 94.2534 18.7637ZM98.425 19.8526C98.425 20.4178 98 20.8735 97.4742 20.8735C96.9503 20.8735 96.5185 20.4178 96.5185 19.8526C96.5185 19.2835 96.9503 18.8297 97.4742 18.8297C98 18.8297 98.425 19.2834 98.425 19.8526ZM118.947 28.224C117.917 28.686 117.122 27.6075 117.122 27.6075C115.823 29.8246 111.59 29.7669 109.484 29.3667C107.115 28.913 104.812 27.8982 102.617 26.867C101.602 26.3947 100.619 25.8564 99.6421 25.3077C96.8135 23.7155 93.8158 22.1666 90.6826 21.3767C83.7987 19.6257 79.7349 21.4901 79.7349 21.4901C73.2078 23.7794 71.4416 28.4613 71.4416 28.4613C71.557 28.158 71.5416 27.7208 71.6272 27.3908C71.7147 27.0587 71.8223 26.7308 71.9435 26.4112C72.2175 25.7284 72.6012 25.085 73.051 24.5177C73.9576 23.3731 75.069 22.4182 76.2131 21.5561C76.7226 21.1724 77.2573 20.8178 77.811 20.496C79.7396 19.3617 81.897 18.6191 84.0968 18.4151C85.3264 18.3058 86.5831 18.3388 87.8011 18.4811C89.9633 18.7555 92.0795 19.403 94.0984 20.2568C95.6097 20.8983 97.0846 21.6408 98.5363 22.4142C102.939 24.7551 105.752 25.9431 106.859 26.3845C107.971 26.8321 110.958 27.4879 112.507 27.3951C115.515 27.2178 116.477 25.7678 116.845 25.1409C117.618 23.8065 116.624 21.4388 114.745 21.6429C113.232 21.8059 112.778 23.3342 113.164 24.1324C113.859 25.572 110.403 24.7552 110.403 24.7552C109.824 23.658 110.926 22.6227 110.926 22.6227C109.793 21.9338 109.593 21.1914 109.793 20.5747C110.309 18.9763 111.923 19.7147 111.923 19.7147C111.265 17.9658 112.169 17.1691 112.998 17.1619C114.341 17.1531 114.66 18.9166 114.66 18.9166C115.263 17.0743 116.665 17.2568 117.039 17.4016C119.029 18.1843 117.546 20.088 117.546 20.088C118.419 19.0917 120.165 19.1496 120.777 20.5519C121.366 21.874 119.736 22.9753 119.416 22.9485C121.218 23.1217 121.186 24.5469 121.046 24.9036C120.628 26.0009 119.25 25.9328 119.25 25.9328C120.001 26.8237 119.655 27.9085 118.947 28.224Z" fill="#009688"/>
<path d="M71.6715 18.6355C71.8224 20.2483 72.6993 21.1971 72.6993 21.1971C71.7042 22.3831 70.9996 23.8061 70.9996 23.8061C70.9996 23.8061 70.2949 22.3829 69.2988 21.1971C69.2988 21.1971 70.1756 20.2483 70.3323 18.6355C69.0507 19.2832 68.0807 20.1287 68.0807 20.1287C65.7856 18.027 61.3373 17.0438 61.3373 17.0438C61.3373 17.0438 65.8415 17.4512 68.5143 16.2925C68.5143 16.2925 69.2603 17.2723 70.3515 18.1838C70.3525 17.4012 70.1843 16.4911 69.6852 15.4723L70.9994 14.4102L72.3137 15.4723C71.8138 16.4911 71.6445 17.4012 71.6465 18.1838C72.7406 17.2723 73.4886 16.2925 73.4886 16.2925C76.1575 17.4512 80.6619 17.0438 80.6619 17.0438C80.6619 17.0438 76.2133 18.0271 73.9175 20.1287C73.9175 20.1287 72.9492 19.2832 71.6715 18.6355Z" fill="#009688"/>
</svg>
