<svg width="34" height="24" viewBox="0 0 34 24" fill="none" xmlns="http://www.w3.org/2000/svg">
<rect width="33.6" height="24" rx="4" fill="white"/>
<path d="M21.1597 10.2997C21.7477 10.2997 22.202 10.4601 22.5494 10.7808C22.8969 11.1015 23.0572 11.5291 23.0572 12.0636V14.6292H22.3089V14.0413H22.2822C21.9615 14.5223 21.5071 14.7629 20.9726 14.7629C20.5183 14.7629 20.1174 14.6292 19.7968 14.362C19.5028 14.0947 19.3157 13.7206 19.3157 13.3197C19.3157 12.8921 19.476 12.5447 19.7968 12.2774C20.1174 12.0102 20.5718 11.9033 21.1063 11.9033C21.5873 11.9033 21.9615 11.9835 22.2554 12.1705V11.9835C22.2554 11.734 22.1623 11.4846 21.9761 11.3221L21.9347 11.2886C21.7209 11.1015 21.4537 10.9946 21.1597 10.9946C20.7054 10.9946 20.358 11.1817 20.1174 11.5559L19.4226 11.1282C19.8502 10.5669 20.4114 10.2997 21.1597 10.2997ZM17.3915 8.48242C17.871 8.48242 18.3268 8.6493 18.6911 8.96049L18.7545 9.01688C19.1286 9.33759 19.3157 9.81867 19.3157 10.3264C19.3157 10.8342 19.1286 11.2885 18.7545 11.6359C18.3804 11.9834 17.926 12.1704 17.3915 12.1704L16.1087 12.1437V14.6292H15.3069V8.48242H17.3915ZM21.2666 12.5446C20.9459 12.5446 20.6787 12.6248 20.4649 12.7851C20.2511 12.9188 20.1442 13.1058 20.1442 13.3463C20.1442 13.5602 20.2511 13.7472 20.4114 13.8541C20.5985 13.9878 20.8123 14.0679 21.0261 14.0679C21.3254 14.0679 21.6247 13.9515 21.8589 13.7404L21.908 13.6938C22.1753 13.4533 22.3089 13.1593 22.3089 12.8386C22.0684 12.6515 21.7209 12.5446 21.2666 12.5446M17.445 9.23066H16.1088V11.3688H17.445C17.739 11.3688 18.0329 11.2619 18.22 11.0481C18.6476 10.6472 18.6476 9.97911 18.2468 9.57819L18.22 9.55146C18.0062 9.33768 17.739 9.20405 17.445 9.23079M27.3866 10.4334L24.7409 16.4999H23.9391L24.9279 14.3887L23.1908 10.4601H24.046L25.3021 13.48H25.3288L26.5581 10.4601H27.3866V10.4334Z" fill="#5F6368"/>
<path d="M12.9284 11.6092C12.9284 11.3687 12.9017 11.1282 12.875 10.8877H9.53442V12.2507H11.4319C11.3517 12.6782 11.1112 13.0791 10.737 13.3197V14.2016H11.8862C12.5543 13.5869 12.9285 12.6782 12.9285 11.6093" fill="#4285F4"/>
<path d="M9.53438 15.0568C10.4964 15.0568 11.2982 14.7361 11.8862 14.2016L10.737 13.3197C10.4163 13.5335 10.0154 13.6671 9.53438 13.6671C8.6257 13.6671 7.82395 13.0525 7.55671 12.1973H6.38086V13.1059C6.99552 14.3085 8.19814 15.0568 9.53438 15.0568Z" fill="#34A853"/>
<path d="M7.5567 12.1974C7.39639 11.7698 7.39639 11.2888 7.5567 10.8344V9.92578H6.38086C5.87305 10.9146 5.87305 12.0905 6.38086 13.106L7.5567 12.1974Z" fill="#FBBC04"/>
<path d="M9.53436 9.39115C10.0421 9.39115 10.5232 9.57824 10.8973 9.92564L11.9129 8.91011C11.2714 8.32215 10.4163 7.97474 9.56105 8.00143C8.22481 8.00143 6.9955 8.74976 6.40753 9.95238L7.58342 10.861C7.82394 10.0058 8.62568 9.39115 9.53436 9.39115Z" fill="#EA4335"/>
</svg>
