<svg width="51" height="48" viewBox="0 0 51 48" fill="none" xmlns="http://www.w3.org/2000/svg">
<path d="M29.0498 40.32C29.0498 38.784 27.9698 37.4496 26.4098 37.0752C24.4298 36.6048 23.0498 34.9056 23.0498 32.9472V31.68C23.0498 31.152 23.4998 30.72 24.0498 30.72H30.0498C30.5998 30.72 31.0498 31.152 31.0498 31.68C31.0498 32.208 30.5998 32.64 30.0498 32.64H25.0498V32.9472C25.0498 34.0224 25.8098 34.9536 26.8998 35.2224C29.3398 35.7984 31.0498 37.9008 31.0498 40.32C31.0498 42.4416 29.2598 44.16 27.0498 44.16C24.8398 44.16 23.0498 42.4416 23.0498 40.32C23.0498 39.792 23.4998 39.36 24.0498 39.36C24.5998 39.36 25.0498 39.792 25.0498 40.32C25.0498 41.376 25.9498 42.24 27.0498 42.24C28.1498 42.24 29.0498 41.376 29.0498 40.32ZM10.0498 44.16H16.0498C16.5998 44.16 17.0498 43.728 17.0498 43.2C17.0498 42.672 16.5998 42.24 16.0498 42.24H11.0498V41.9328C11.0498 40.8576 11.8098 39.9264 12.8998 39.6576C15.3398 39.0816 17.0498 36.9792 17.0498 34.56C17.0498 32.4384 15.2598 30.72 13.0498 30.72C10.8398 30.72 9.0498 32.4384 9.0498 34.56C9.0498 35.088 9.4998 35.52 10.0498 35.52C10.5998 35.52 11.0498 35.088 11.0498 34.56C11.0498 33.504 11.9498 32.64 13.0498 32.64C14.1498 32.64 15.0498 33.504 15.0498 34.56C15.0498 36.096 13.9698 37.4304 12.4098 37.8048C10.4298 38.2752 9.0498 39.9744 9.0498 41.9328V43.2C9.0498 43.728 9.4998 44.16 10.0498 44.16ZM20.0498 44.16C20.5998 44.16 21.0498 43.728 21.0498 43.2V41.28C21.0498 40.752 20.5998 40.32 20.0498 40.32C19.4998 40.32 19.0498 40.752 19.0498 41.28V43.2C19.0498 43.728 19.4998 44.16 20.0498 44.16ZM33.5398 43.0656C34.0098 43.3344 34.6298 43.1904 34.9098 42.7392L40.9098 33.1392C41.1898 32.688 41.0398 32.0928 40.5698 31.824C40.0998 31.5552 39.4798 31.6992 39.1998 32.1504L33.1998 41.7504C32.9098 42.2016 33.0598 42.7872 33.5398 43.0656ZM40.0498 40.32C39.4998 40.32 39.0498 40.752 39.0498 41.28C39.0498 41.808 39.4998 42.24 40.0498 42.24C40.5998 42.24 41.0498 41.808 41.0498 41.28C41.0498 40.752 40.5998 40.32 40.0498 40.32ZM34.0498 34.56C34.5998 34.56 35.0498 34.128 35.0498 33.6C35.0498 33.072 34.5998 32.64 34.0498 32.64C33.4998 32.64 33.0498 33.072 33.0498 33.6C33.0498 34.128 33.4998 34.56 34.0498 34.56ZM50.0498 23.04V47.04C50.0498 47.568 49.5998 48 49.0498 48H1.0498C0.499805 48 0.0498047 47.568 0.0498047 47.04V23.04C0.0498047 22.8384 0.109805 22.6464 0.239805 22.4832L5.2398 15.7632C5.4198 15.5136 5.7298 15.36 6.0498 15.36H16.1198C15.1298 13.824 14.5498 12.0192 14.5498 10.08C14.5498 4.5216 19.2598 0 25.0498 0C30.8398 0 35.5498 4.5216 35.5498 10.08C35.5498 12.0192 34.9698 13.824 33.9798 15.36H44.0498C44.3698 15.36 44.6798 15.5136 44.8598 15.7632L49.8598 22.4832C49.9898 22.6464 50.0498 22.8384 50.0498 23.04ZM16.5498 10.08C16.5498 14.5824 20.3598 18.24 25.0498 18.24C29.7398 18.24 33.5498 14.5824 33.5498 10.08C33.5498 5.5776 29.7398 1.92 25.0498 1.92C20.3598 1.92 16.5498 5.5776 16.5498 10.08ZM2.9898 22.08H47.0998L43.5298 17.28H32.3798C30.4898 19.056 27.8998 20.16 25.0498 20.16C22.1998 20.16 19.6098 19.056 17.7198 17.28H6.5598L2.9898 22.08ZM48.0498 28.8H2.0498V46.08H48.0498V28.8ZM48.0498 24H2.0498V26.88H48.0498V24ZM18.5498 10.08C18.5498 6.6432 21.4698 3.84 25.0498 3.84C28.6298 3.84 31.5498 6.6432 31.5498 10.08C31.5498 13.5168 28.6298 16.32 25.0498 16.32C21.4698 16.32 18.5498 13.5168 18.5498 10.08ZM20.5498 10.08C20.5498 12.4608 22.5698 14.4 25.0498 14.4C27.5298 14.4 29.5498 12.4608 29.5498 10.08C29.5498 7.6992 27.5298 5.76 25.0498 5.76C22.5698 5.76 20.5498 7.6992 20.5498 10.08Z" fill="#03060E"/>
</svg>
