<svg width="34" height="24" viewBox="0 0 34 24" fill="none" xmlns="http://www.w3.org/2000/svg">
<rect width="33.6" height="24" rx="4" fill="white"/>
<rect width="33.6" height="24" rx="4" fill="white"/>
<path d="M0 4C0 1.79086 1.79086 0 4 0H29.6C31.8091 0 33.6 1.79086 33.6 4V4.2H0V4Z" fill="#FFD54F"/>
<path d="M0 19.7998H33.6V19.9998C33.6 22.2089 31.8091 23.9998 29.6 23.9998H4C1.79086 23.9998 0 22.2089 0 19.9998V19.7998Z" fill="#222357"/>
<path d="M17.6132 10.7174C17.5982 11.9014 18.6684 12.5622 19.4747 12.955C20.303 13.3581 20.5812 13.6166 20.5779 13.9771C20.5718 14.5287 19.9172 14.7722 19.3047 14.7817C18.2361 14.7982 17.6147 14.4931 17.1208 14.2624L16.7358 16.0637C17.2314 16.2921 18.1491 16.4913 19.1007 16.5C21.3345 16.5 22.7959 15.3973 22.8038 13.6877C22.8125 11.518 19.8027 11.3979 19.8232 10.4281C19.8303 10.134 20.1109 9.82024 20.7258 9.74045C21.0301 9.70014 21.8703 9.6693 22.8228 10.1079L23.1967 8.36512C22.6844 8.1786 22.0261 8 21.2064 8C19.1039 8 17.6251 9.11766 17.6132 10.7174ZM26.789 8.15012C26.3811 8.15012 26.0374 8.38805 25.884 8.75316L22.6932 16.372H24.9253L25.3695 15.1444H28.0971L28.3548 16.372H30.3222L28.6054 8.15012H26.789ZM27.1013 10.3712L27.7455 13.4586H25.9813L27.1013 10.3712ZM14.9068 8.15022L13.1474 16.3719H15.2744L17.0331 8.15002L14.9068 8.15022ZM11.7602 8.15022L9.54626 13.7462L8.65069 8.98801C8.54561 8.45683 8.13063 8.15012 7.66978 8.15012H4.05069L4 8.38887C4.74298 8.55009 5.58714 8.81013 6.09858 9.08836C6.41156 9.25832 6.50081 9.4069 6.60363 9.81078L8.29987 16.372H10.5476L13.9938 8.15012L11.7602 8.15022Z" fill="url(#paint0_linear_554_7679)"/>
<defs>
<linearGradient id="paint0_linear_554_7679" x1="1214.13" y1="33.551" x2="1238.74" y2="-839.411" gradientUnits="userSpaceOnUse">
<stop stop-color="#222357"/>
<stop offset="1" stop-color="#254AA5"/>
</linearGradient>
</defs>
</svg>
