<svg width="23" height="24" viewBox="0 0 23 24" fill="none" xmlns="http://www.w3.org/2000/svg">
<path d="M22.0989 11.5299C21.9111 11.7553 21.6482 11.8679 21.3853 11.8679V17.3142C21.3853 17.5396 21.1975 17.6898 21.0097 17.6898C20.7843 17.6898 20.6341 17.5396 20.6341 17.3142V11.9055H18.3429C18.1175 11.9055 17.8922 11.8304 17.7419 11.7177L16.8029 11.0416V15.1357C16.8029 15.3986 16.878 15.6616 17.0283 15.8869L19.019 18.7415C19.0941 18.8166 19.1317 18.8918 19.1692 19.0044L20.7843 22.3473C20.9346 22.6854 20.9346 22.9859 20.7843 23.2863C20.6716 23.5868 20.4087 23.8122 20.1082 23.9249C19.958 24 19.8077 24 19.6575 24C19.1692 24 18.7185 23.6995 18.5307 23.2488L16.9907 20.0186L14.6244 16.563L13.8732 19.4552C13.8356 19.5679 13.7981 19.6805 13.7605 19.7932C13.7605 19.8308 13.7229 19.8308 13.7229 19.8308L10.9435 23.399C10.7181 23.7746 10.3425 24 9.89176 24C9.70395 24 9.47859 23.9624 9.32835 23.8498C8.72738 23.5493 8.50201 22.7981 8.84006 22.1971C8.84006 22.1595 8.87762 22.1595 8.87762 22.122L11.3942 18.8918C11.4693 18.7791 11.5444 18.6288 11.582 18.5162L11.9576 16.5254C12.0703 15.9245 12.1078 15.2859 12.1078 14.685V10.8538L11.3566 11.2294L11.8073 13.3328C11.8825 13.5582 11.8449 13.8211 11.7322 14.084C11.6195 14.3094 11.3942 14.4972 11.1313 14.5723C10.981 14.6099 10.9059 14.6099 10.7932 14.6099C10.3425 14.6099 9.96688 14.3094 9.81663 13.8962L9.74151 13.6333C9.70395 13.6333 9.62883 13.5957 9.59127 13.5582L6.92447 11.3045V15.4738V15.5489V22.8732C6.92447 23.5117 6.39862 24 5.79765 24C5.15912 24 4.67084 23.4742 4.67084 22.8732C4.67084 22.8732 4.67084 17.6147 4.67084 15.962C4.67084 15.9245 4.67084 15.8869 4.63328 15.8869C4.59572 15.8494 4.44547 15.8494 4.40791 15.962C4.10743 17.502 2.90549 23.0985 2.90549 23.1737V23.2112C2.68013 23.7746 2.0416 24.1127 1.44063 23.8873C1.14014 23.7746 0.914779 23.5868 0.802098 23.3239C0.689416 23.061 0.651856 22.7605 0.764537 22.4976L1.85379 17.0889C1.96648 16.4503 2.07916 15.9996 2.11672 15.5113C2.00404 15.5489 1.89135 15.5489 1.77867 15.5489C1.70355 15.5489 1.66599 15.5489 1.59087 15.5489C1.06502 15.4738 0.651855 14.9479 0.651855 14.3845V9.6143C0.651855 8.56261 1.51575 7.73627 2.52988 7.73627H4.97132C5.76009 7.73627 6.54886 8.03676 7.14983 8.56261L9.02786 10.1777C9.10298 10.0275 9.21566 9.91479 9.36591 9.83967L11.8825 8.29968C12.1829 8.11188 12.5586 7.9992 12.9717 7.9992H15.8639C16.3146 7.9992 16.7653 8.14944 17.1034 8.41236L19.0565 9.87723H20.5965V3.60461C20.4838 3.64217 20.3336 3.67973 20.2209 3.67973C19.7702 3.67973 19.357 3.49193 19.019 3.34169C18.3804 3.0412 18.0424 2.92852 17.6668 3.26657C17.5541 3.37925 17.4039 3.37925 17.2536 3.34169C17.1034 3.26657 17.0283 3.15388 17.0283 3.00364V0.674887C17.0283 0.562205 17.0658 0.487084 17.1409 0.411962C17.9297 -0.301688 18.7561 0.0739173 19.357 0.336841C19.9955 0.637326 20.3336 0.787568 20.7092 0.411962C20.7843 0.336841 20.8219 0.336841 20.8594 0.299281H20.897H21.0097H21.0472C21.0848 0.299281 21.1224 0.299281 21.1599 0.336841C21.1975 0.336841 21.235 0.336841 21.2726 0.374402C21.2726 0.374402 21.2726 0.374402 21.3102 0.411962C21.3102 0.449523 21.3477 0.449523 21.3477 0.487084V0.524644C21.3477 0.562205 21.3853 0.599765 21.3853 0.637326V9.87723C21.836 9.91479 22.2492 10.2528 22.3243 10.7036C22.3994 11.004 22.2867 11.3045 22.0989 11.5299Z" fill="#374868"/>
<path d="M12.2954 5.10625C12.2954 3.90431 13.272 2.92773 14.4739 2.92773C15.6759 2.92773 16.6524 3.90431 16.6524 5.10625C16.6524 6.30819 15.6759 7.28476 14.4739 7.28476C13.272 7.2472 12.2954 6.27062 12.2954 5.10625Z" fill="#374868"/>
<path d="M2.37988 4.88088C2.37988 3.79163 3.24378 2.92773 4.33303 2.92773C5.42229 2.92773 6.28618 3.79163 6.28618 4.88088C6.28618 5.97014 5.42229 6.83403 4.33303 6.83403C3.28134 6.83403 2.37988 5.97014 2.37988 4.88088Z" fill="#374868"/>
</svg>
