<svg width="34" height="24" viewBox="0 0 34 24" fill="none" xmlns="http://www.w3.org/2000/svg">
<rect width="33.6" height="24" rx="4" fill="white"/>
<path d="M11.8142 17.9735V17.1771C11.8142 16.8717 11.6283 16.6726 11.3097 16.6726C11.1505 16.6726 10.9779 16.7257 10.8584 16.8983C10.7655 16.7523 10.6328 16.6726 10.4337 16.6726C10.3009 16.6726 10.1682 16.7124 10.062 16.8585V16.6992H9.7832V17.9735H10.062V17.27C10.062 17.0443 10.1814 16.9381 10.3673 16.9381C10.5531 16.9381 10.6461 17.0576 10.6461 17.27V17.9735H10.9248V17.27C10.9248 17.0443 11.0575 16.9381 11.2301 16.9381C11.416 16.9381 11.5089 17.0576 11.5089 17.27V17.9735H11.8142ZM15.9425 16.6992H15.4912V16.3142H15.2124V16.6992H14.9602V16.9513H15.2124V17.5355C15.2124 17.8275 15.3319 18.0001 15.6505 18.0001C15.77 18.0001 15.9026 17.9603 15.9956 17.9072L15.9159 17.6682C15.8363 17.7213 15.7434 17.7346 15.677 17.7346C15.5443 17.7346 15.4912 17.655 15.4912 17.5222V16.9513H15.9425V16.6992ZM18.3053 16.6726C18.1461 16.6726 18.0399 16.7523 17.9735 16.8585V16.6992H17.6947V17.9735H17.9735V17.2567C17.9735 17.0443 18.0664 16.9249 18.2389 16.9249C18.292 16.9249 18.3584 16.9382 18.4115 16.9514L18.4912 16.686C18.4381 16.6726 18.3584 16.6726 18.3053 16.6726M14.7345 16.8054C14.6018 16.7125 14.4159 16.6727 14.2168 16.6727C13.8983 16.6727 13.6859 16.832 13.6859 17.0842C13.6859 17.2966 13.8452 17.416 14.1239 17.4559L14.2567 17.4692C14.4027 17.4957 14.4823 17.5355 14.4823 17.6019C14.4823 17.6948 14.3762 17.7612 14.1903 17.7612C14.0044 17.7612 13.8584 17.6948 13.7655 17.6285L13.6328 17.8408C13.7788 17.947 13.9779 18.0001 14.177 18.0001C14.5487 18.0001 14.7611 17.8276 14.7611 17.5886C14.7611 17.363 14.5885 17.2435 14.323 17.2037L14.1903 17.1904C14.0708 17.1771 13.9779 17.1506 13.9779 17.071C13.9779 16.978 14.0708 16.9249 14.2168 16.9249C14.3762 16.9249 14.5354 16.9913 14.6151 17.0311L14.7345 16.8054ZM22.1416 16.6727C21.9823 16.6727 21.8761 16.7523 21.8097 16.8585V16.6993H21.531V17.9736H21.8097V17.2568C21.8097 17.0444 21.9027 16.9249 22.0752 16.9249C22.1283 16.9249 22.1947 16.9382 22.2478 16.9515L22.3275 16.686C22.2744 16.6727 22.1947 16.6727 22.1416 16.6727ZM18.5841 17.3364C18.5841 17.7214 18.8496 18.0001 19.2611 18.0001C19.4469 18.0001 19.5796 17.9603 19.7124 17.8541L19.5796 17.6285C19.4735 17.7081 19.3673 17.7479 19.2478 17.7479C19.0221 17.7479 18.8629 17.5886 18.8629 17.3364C18.8629 17.0975 19.0221 16.9382 19.2478 16.9249C19.3673 16.9249 19.4735 16.9647 19.5796 17.0444L19.7124 16.8187C19.5796 16.7125 19.4469 16.6727 19.2611 16.6727C18.8496 16.6727 18.5841 16.9515 18.5841 17.3364ZM21.1593 17.3364V16.6993H20.8806V16.8585C20.7876 16.7391 20.6549 16.6727 20.4823 16.6727C20.1239 16.6727 19.8452 16.9515 19.8452 17.3364C19.8452 17.7214 20.1239 18.0001 20.4823 18.0001C20.6681 18.0001 20.8009 17.9338 20.8806 17.8143V17.9736H21.1593V17.3364ZM20.1372 17.3364C20.1372 17.1107 20.2832 16.9249 20.5221 16.9249C20.7478 16.9249 20.9071 17.0975 20.9071 17.3364C20.9071 17.5621 20.7478 17.7479 20.5221 17.7479C20.2832 17.7346 20.1372 17.5621 20.1372 17.3364ZM16.8054 16.6727C16.4337 16.6727 16.1681 16.9382 16.1681 17.3364C16.1681 17.7347 16.4336 18.0001 16.8186 18.0001C17.0044 18.0001 17.1903 17.947 17.3363 17.8276L17.2035 17.6285C17.0974 17.7081 16.9646 17.7612 16.8319 17.7612C16.6593 17.7612 16.4867 17.6816 16.4469 17.4558H17.3894V17.3497C17.4027 16.9382 17.1638 16.6727 16.8054 16.6727ZM16.8053 16.9116C16.9778 16.9116 17.0974 17.0179 17.1238 17.217H16.4601C16.4867 17.0444 16.6062 16.9116 16.8053 16.9116ZM23.7212 17.3364V16.1948H23.4424V16.8585C23.3495 16.7391 23.2168 16.6727 23.0442 16.6727C22.6858 16.6727 22.407 16.9515 22.407 17.3364C22.407 17.7214 22.6858 18.0001 23.0442 18.0001C23.2301 18.0001 23.3628 17.9338 23.4424 17.8143V17.9736H23.7212V17.3364ZM22.6991 17.3364C22.6991 17.1107 22.8451 16.9249 23.084 16.9249C23.3097 16.9249 23.469 17.0975 23.469 17.3364C23.469 17.5621 23.3097 17.7479 23.084 17.7479C22.8451 17.7346 22.6991 17.5621 22.6991 17.3364ZM13.3805 17.3364V16.6993H13.1017V16.8585C13.0088 16.7391 12.876 16.6727 12.7035 16.6727C12.3451 16.6727 12.0663 16.9515 12.0663 17.3364C12.0663 17.7214 12.3451 18.0001 12.7035 18.0001C12.8894 18.0001 13.0221 17.9338 13.1017 17.8143V17.9736H13.3805V17.3364ZM12.3451 17.3364C12.3451 17.1107 12.4911 16.9249 12.73 16.9249C12.9557 16.9249 13.115 17.0975 13.115 17.3364C13.115 17.5621 12.9557 17.7479 12.73 17.7479C12.4911 17.7346 12.3451 17.5621 12.3451 17.3364Z" fill="black"/>
<path d="M14.6416 7.02246H18.823V14.5357H14.6416V7.02246Z" fill="#FF5F00"/>
<path d="M14.9071 10.7788C14.9071 9.25224 15.6239 7.89823 16.7256 7.0221C15.916 6.38494 14.8939 6 13.7788 6C11.1371 6 9 8.13714 9 10.7788C9 13.4204 11.1371 15.5575 13.7788 15.5575C14.8938 15.5575 15.9159 15.1726 16.7256 14.5354C15.6239 13.6726 14.9071 12.3053 14.9071 10.7788Z" fill="#EB001B"/>
<path d="M24.4646 10.7788C24.4646 13.4203 22.3275 15.5575 19.6858 15.5575C18.5708 15.5575 17.5487 15.1726 16.739 14.5354C17.854 13.6593 18.5575 12.3053 18.5575 10.7788C18.5575 9.25224 17.8407 7.89823 16.739 7.0221C17.5486 6.38494 18.5708 6 19.6858 6C22.3275 6 24.4646 8.15044 24.4646 10.7788Z" fill="#F79E1B"/>
</svg>
