<svg width="34" height="24" viewBox="0 0 34 24" fill="none" xmlns="http://www.w3.org/2000/svg">
<rect width="33.6" height="24" rx="4" fill="white"/>
<path d="M27.4273 12.3919C27.4273 10.9393 26.7237 9.79306 25.3789 9.79306C24.0284 9.79306 23.2113 10.9393 23.2113 12.3805C23.2113 14.0885 24.176 14.951 25.5605 14.951C26.2357 14.951 26.7464 14.7977 27.1322 14.5821V13.4473C26.7464 13.6402 26.3038 13.7594 25.7421 13.7594C25.1916 13.7594 24.7037 13.5664 24.6413 12.8969H27.416C27.416 12.8231 27.4273 12.528 27.4273 12.3919ZM24.6242 11.8528C24.6242 11.2116 25.0158 10.9449 25.3733 10.9449C25.7194 10.9449 26.0882 11.2116 26.0882 11.8528H24.6242ZM21.0211 9.79306C20.465 9.79306 20.1075 10.0541 19.9089 10.2357L19.8351 9.88386H18.5868V16.5L20.0054 16.1993L20.0111 14.5935C20.2154 14.741 20.5161 14.951 21.0154 14.951C22.0311 14.951 22.956 14.1339 22.956 12.3351C22.9503 10.6896 22.0141 9.79306 21.0211 9.79306M20.6806 13.7026C20.3458 13.7026 20.1472 13.5835 20.011 13.4359L20.0053 11.3308C20.1529 11.1662 20.3572 11.0528 20.6806 11.0528C21.1969 11.0528 21.5544 11.6315 21.5544 12.3748C21.5544 13.1352 21.2026 13.7026 20.6806 13.7026ZM16.6349 9.45828L18.0591 9.15187V8L16.6349 8.30074V9.45828ZM16.6349 9.88953H18.0591V14.8545H16.6349V9.88953ZM15.1085 10.3094L15.0177 9.88953H13.7921V14.8545H15.2107V11.4897C15.5454 11.0528 16.1129 11.1322 16.2888 11.1946V9.88953C16.1072 9.82142 15.4433 9.69658 15.1085 10.3094ZM12.2714 8.65822L10.8869 8.95326L10.8812 13.4983C10.8812 14.3382 11.511 14.9566 12.3508 14.9566C12.8161 14.9566 13.1566 14.8715 13.3438 14.7694V13.6175C13.1623 13.6913 12.2657 13.9523 12.2657 13.1125V11.0981H13.3438V9.88953H12.2657L12.2714 8.65822ZM8.43558 11.3308C8.43558 11.1095 8.61715 11.0244 8.91793 11.0244C9.34914 11.0244 9.89386 11.1549 10.3251 11.3875V10.0541C9.85416 9.86683 9.38888 9.79306 8.91793 9.79306C7.76602 9.79306 7 10.3945 7 11.3989C7 12.965 9.1562 12.7153 9.1562 13.3906C9.1562 13.6515 8.92926 13.7367 8.61148 13.7367C8.14054 13.7367 7.53905 13.5437 7.0624 13.2827V14.6332C7.59012 14.8602 8.1235 14.9566 8.61148 14.9566C9.79172 14.9566 10.6031 14.3722 10.6031 13.3565C10.5975 11.6656 8.43558 11.9663 8.43558 11.3308Z" fill="#635BFF"/>
</svg>
