<svg width="24" height="18" viewBox="0 0 24 18" fill="none" xmlns="http://www.w3.org/2000/svg">
<path d="M23.8465 8.49576C23.8207 8.45969 23.2005 7.60624 22.1035 7.38157C21.1091 7.17795 18.8413 7.16642 18.7453 7.16605C18.5893 7.1655 18.4454 7.15397 18.3773 7.14518C18.3116 7.09153 18.1781 6.96042 18.09 6.85166L13.6402 1.35484C13.5441 1.236 13.3481 1.01206 13.2236 0.926372C13.0105 0.779155 12.4641 0.815043 12.4026 0.819621L12.2815 0.828593C12.1166 0.840861 11.8185 0.87382 11.6764 0.957133C11.5922 1.00639 11.3362 1.15653 11.5724 1.88529C11.5724 1.88529 13.2683 7.11643 13.2751 7.1395C13.2498 7.14096 10.8356 7.14188 10.8356 7.14188C10.6761 7.14188 10.5292 7.13071 10.4611 7.12229C10.3941 7.07102 10.2546 6.9412 10.1634 6.8339L8.59399 4.98746C8.58282 4.97446 8.32153 4.66831 8.15637 4.56779C7.93518 4.43339 7.51019 4.50205 7.50598 4.50278C7.38476 4.52549 7.21411 4.58317 7.10608 4.6608C6.91125 4.80106 6.87811 5.10831 7.00793 5.57395C7.36041 6.83756 7.86322 8.71073 7.90039 8.99747C7.86322 9.28421 7.36023 11.1574 7.00793 12.421C6.98047 12.5197 6.89258 12.8557 6.91968 13.0302C6.97534 13.3889 7.48437 13.4881 7.50598 13.4922C7.63287 13.516 7.80554 13.5235 7.91632 13.5103C8.18164 13.4782 8.52734 13.0857 8.59399 13.0075L10.1634 11.1609C10.2656 11.0409 10.3688 10.9371 10.4185 10.8919C10.5012 10.8747 10.692 10.8531 10.8356 10.8531C10.8356 10.8531 13.2504 10.8534 13.2742 10.8542C13.2678 10.8787 11.5726 16.1096 11.5726 16.1096C11.5217 16.2668 11.4394 16.5546 11.462 16.7168C11.4982 16.9776 11.774 17.1286 12.2817 17.1663L12.4026 17.1753C12.4795 17.181 12.593 17.1867 12.7056 17.1867C12.8168 17.1867 12.9268 17.1812 13.0002 17.1654C13.2533 17.1109 13.6016 16.6881 13.6404 16.6401L18.0902 11.1433C18.1883 11.0221 18.2876 10.9168 18.3368 10.8692C18.4196 10.8514 18.6055 10.8294 18.7453 10.8289C18.8413 10.8285 21.1092 10.817 22.1037 10.6134C23.2007 10.3885 23.8208 9.53525 23.8467 9.49899C24.0508 9.21299 24.0508 8.78177 23.8465 8.49576Z" fill="#374868"/>
<path d="M4.78479 5.5332H2.92023C2.52307 5.5332 2.20117 5.85876 2.20117 6.2605C2.20117 6.66205 2.52307 6.98779 2.92023 6.98779H4.78479C5.18194 6.98779 5.50402 6.66205 5.50402 6.2605C5.50402 5.85876 5.18194 5.5332 4.78479 5.5332Z" fill="#374868"/>
<path d="M4.78479 11.2012H2.92023C2.52307 11.2012 2.20117 11.5267 2.20117 11.9283C2.20117 12.33 2.52307 12.6556 2.92023 12.6556H4.78479C5.18194 12.6556 5.50402 12.33 5.50402 11.9283C5.50402 11.5267 5.18194 11.2012 4.78479 11.2012Z" fill="#374868"/>
<path d="M4.78472 8.36523H0.719238C0.322082 8.36523 0 8.69098 0 9.09253C0 9.49426 0.322082 9.81982 0.719238 9.81982H4.78472C5.18188 9.81982 5.50396 9.49426 5.50396 9.09253C5.50396 8.69098 5.18188 8.36523 4.78472 8.36523Z" fill="#374868"/>
</svg>
