<svg width="20" height="24" viewBox="0 0 20 24" fill="none" xmlns="http://www.w3.org/2000/svg">
<path d="M12.7362 2.47718L11.6577 3.5322L11.9127 5.02222C11.9539 5.26522 11.7678 5.48973 11.5182 5.48973C11.3828 5.48973 11.4531 5.50778 9.99971 4.74071L8.66769 5.44372C8.37519 5.59813 8.03128 5.34932 8.08668 5.02222L8.34169 3.5322L7.26317 2.47718C7.02577 2.24518 7.15877 1.84287 7.48517 1.79517L8.97419 1.57817L9.6407 0.223147C9.78721 -0.0741573 10.212 -0.0746073 10.3587 0.223147L11.0252 1.57817L12.5142 1.79517C12.8413 1.84297 12.9732 2.24568 12.7362 2.47718ZM5.8259 4.52426L5.77865 4.24876C5.9636 4.06845 6.17085 3.92315 6.08 3.6436C5.9892 3.36419 5.73425 3.36804 5.48049 3.33114L5.35679 3.08049C5.21039 2.78379 4.78593 2.78359 4.63938 3.08049L4.51568 3.33114C4.26007 3.36829 4.00697 3.36399 3.91617 3.6436C3.82537 3.923 4.03392 4.06975 4.21752 4.24876L4.17027 4.52426C4.11437 4.85032 4.45758 5.09997 4.75068 4.94592L4.99804 4.81582C5.25129 4.94902 5.30654 4.99187 5.43149 4.99187C5.6783 4.99187 5.868 4.76956 5.8259 4.52426ZM2.32585 6.52429L2.2786 6.24879C2.46355 6.06848 2.6708 5.92318 2.57995 5.64363C2.48915 5.36422 2.23419 5.36807 1.98044 5.33117L1.85674 5.08052C1.71034 4.78381 1.28588 4.78362 1.13933 5.08052L1.01563 5.33117C0.760023 5.36832 0.506919 5.36402 0.416118 5.64363C0.325317 5.92303 0.53387 6.06978 0.717472 6.24879L0.670222 6.52429C0.614321 6.85035 0.957526 7.1 1.25063 6.94595L1.49798 6.81585C1.75124 6.94905 1.80649 6.9919 1.93144 6.9919C2.17824 6.9919 2.36795 6.76959 2.32585 6.52429ZM15.829 4.52426L15.7817 4.24876C15.9667 4.06845 16.174 3.92315 16.0831 3.6436C15.9923 3.36419 15.7373 3.36804 15.4836 3.33114C15.3692 3.09939 15.2952 2.85754 15.0012 2.85754C14.7075 2.85754 14.6323 3.10119 14.5188 3.33114L14.2422 3.37134C13.9148 3.41894 13.7835 3.82255 14.0205 4.05365L14.2207 4.24876C14.177 4.50346 14.0947 4.74271 14.3326 4.91547C14.5702 5.08817 14.7742 4.93517 15.0012 4.81582C15.2545 4.94902 15.3097 4.99187 15.4347 4.99187C15.6814 4.99187 15.871 4.76956 15.829 4.52426ZM19.329 6.52429L19.2818 6.24879C19.4667 6.06848 19.674 5.92318 19.5832 5.64363C19.4923 5.36422 19.2374 5.36807 18.9836 5.33117C18.8693 5.09942 18.7952 4.85757 18.5013 4.85757C18.2075 4.85757 18.1324 5.10122 18.0189 5.33117L17.7423 5.37137C17.4149 5.41897 17.2835 5.82258 17.5206 6.05368L17.7207 6.24879C17.677 6.50349 17.5948 6.74274 17.8326 6.9155C18.0703 7.0882 18.2743 6.9352 18.5013 6.81585C18.7545 6.94905 18.8098 6.9919 18.9347 6.9919C19.1814 6.9919 19.3711 6.76959 19.329 6.52429ZM4.10757 23.5886C4.11442 23.8139 3.93317 24 3.70772 24H1.59954C0.715872 24 -0.000488281 23.2836 -0.000488281 22.4V14.3999C-0.000488281 13.5162 0.715872 12.7998 1.59954 12.7998H3.69957C3.92047 12.7998 4.09957 12.9793 4.09957 13.2002C4.09912 20.7334 4.08652 22.8984 4.10757 23.5886ZM2.74955 16.7999C2.74955 16.579 2.57045 16.3999 2.34955 16.3999C2.12864 16.3999 1.94954 16.579 1.94954 16.7999V18.4999C1.94954 18.7208 2.12864 18.8999 2.34955 18.8999C2.57045 18.8999 2.74955 18.7208 2.74955 18.4999V16.7999ZM19.9998 14.3999V22.4C19.9998 23.2836 19.2834 24 18.3998 24H16.292C16.0665 24 15.8852 23.8138 15.8921 23.5885C15.9132 22.8996 15.9002 20.7377 15.8997 13.2002C15.8997 12.9793 16.0788 12.7998 16.2998 12.7998H18.3998C19.2835 12.7998 19.9998 13.5162 19.9998 14.3999ZM18.0498 16.7999C18.0498 16.579 17.8707 16.3999 17.6498 16.3999C17.4289 16.3999 17.2498 16.579 17.2498 16.7999V18.4999C17.2498 18.7208 17.4289 18.8999 17.6498 18.8999C17.8707 18.8999 18.0498 18.7208 18.0498 18.4999V16.7999ZM8.99964 24H10.9997C11.2206 24 11.3997 23.8209 11.3997 23.6V19.8499C11.3997 19.629 11.2206 19.4499 10.9997 19.4499H8.99964C8.77874 19.4499 8.59964 19.629 8.59964 19.8499V23.6C8.59964 23.8209 8.77874 24 8.99964 24ZM15.0997 8.69977V23.6C15.0997 23.8209 14.9206 24 14.6997 24H12.5997C12.3788 24 12.1997 23.8209 12.1997 23.6V19.0499C12.1997 18.829 12.0206 18.6499 11.7997 18.6499H8.19963C7.97873 18.6499 7.79963 18.829 7.79963 19.0499V23.6C7.79963 23.8209 7.62052 24 7.39962 24H5.29959C5.07869 24 4.89958 23.8209 4.89958 23.6V8.69977C4.89958 7.81611 5.61594 7.09975 6.49961 7.09975H13.4997C14.3834 7.09975 15.0997 7.81611 15.0997 8.69977ZM11.9997 15.3999C11.9997 15.179 11.8206 14.9999 11.5997 14.9999H8.39964C8.17873 14.9999 7.99963 15.179 7.99963 15.3999C7.99963 15.6208 8.17873 15.7999 8.39964 15.7999H11.5997C11.8206 15.7999 11.9997 15.6208 11.9997 15.3999ZM12.6997 11.5498C12.6997 11.3289 12.5206 11.1498 12.2997 11.1498H7.69963C7.47872 11.1498 7.29962 11.3289 7.29962 11.5498C7.29962 11.7707 7.47872 11.9498 7.69963 11.9498H12.2997C12.5206 11.9498 12.6997 11.7707 12.6997 11.5498Z" fill="#374868"/>
</svg>
