<svg width="20" height="20" viewBox="0 0 20 20" fill="none" xmlns="http://www.w3.org/2000/svg">
<g clip-path="url(#clip0_809_7575)">
<path d="M19.6471 6.3882C19.6471 6.15761 19.6471 5.92702 19.6448 5.69643C19.6424 5.50114 19.6424 5.3082 19.6354 5.11526C19.6236 4.69173 19.6001 4.26585 19.5248 3.84702C19.4495 3.42349 19.3248 3.0282 19.1271 2.64232C18.9342 2.26349 18.6824 1.91761 18.3813 1.61643C18.0801 1.31526 17.7342 1.06349 17.3554 0.870552C16.9695 0.675258 16.5742 0.550552 16.1507 0.472905C15.7319 0.397611 15.306 0.371729 14.8824 0.362317C14.6895 0.357611 14.4942 0.355258 14.3013 0.352905C14.073 0.352905 13.8424 0.352905 13.6119 0.352905H6.38832C6.15773 0.352905 5.92714 0.352905 5.69656 0.355258C5.50126 0.357611 5.30832 0.357611 5.11538 0.36467C4.69185 0.376435 4.26597 0.399964 3.84715 0.475258C3.42362 0.550552 3.02832 0.675258 2.64244 0.872905C2.26362 1.06349 1.91773 1.31526 1.61656 1.61643C1.31538 1.91761 1.06362 2.26349 0.870674 2.64232C0.67538 3.0282 0.550674 3.42349 0.473027 3.84702C0.397733 4.26585 0.371851 4.69173 0.362439 5.11291C0.357733 5.30585 0.35538 5.50114 0.353027 5.69408V6.3882V13.6117C0.353027 13.8423 0.353027 14.0729 0.35538 14.3035C0.357733 14.4988 0.357733 14.6917 0.364792 14.8847C0.376557 15.3082 0.400086 15.7341 0.47538 16.1529C0.550674 16.5764 0.67538 16.9717 0.873027 17.3576C1.06597 17.7364 1.31773 18.0823 1.61891 18.3835C1.92009 18.6847 2.26597 18.9364 2.64479 19.1294C3.03067 19.3247 3.42597 19.4494 3.8495 19.527C4.26832 19.6023 4.6942 19.6282 5.11773 19.6376C5.31067 19.6423 5.50597 19.6447 5.69891 19.647C5.9295 19.6494 6.16009 19.6494 6.39067 19.6494H13.6142C13.8448 19.6494 14.0754 19.6494 14.306 19.647C14.5013 19.6447 14.6942 19.6447 14.8871 19.6376C15.3107 19.6258 15.7366 19.6023 16.1554 19.527C16.5789 19.4517 16.9742 19.327 17.3601 19.1294C17.7389 18.9364 18.0848 18.6847 18.386 18.3835C18.6871 18.0823 18.9389 17.7364 19.1319 17.3576C19.3271 16.9717 19.4519 16.5764 19.5295 16.1529C19.6048 15.7341 19.6307 15.3082 19.6401 14.8847C19.6448 14.6917 19.6471 14.4964 19.6495 14.3035C19.6519 14.0729 19.6519 13.8423 19.6519 13.6117L19.6471 6.3882Z" fill="url(#paint0_linear_809_7575)"/>
<path d="M9.99301 7.36946C10.7907 7.36946 11.4377 8.01652 11.4377 8.81182C11.4377 9.60946 10.7907 10.2542 9.99301 10.2542C9.19536 10.2542 8.5483 9.60711 8.5483 8.81182C8.55065 8.01652 9.19771 7.36946 9.99301 7.36946ZM14.1507 9.3177C14.1507 10.7412 13.4307 12.0001 12.3342 12.7506C12.2777 12.7883 12.2024 12.7459 12.2071 12.6777C12.2236 12.4236 12.2283 12.2001 12.2142 11.9695C12.2095 11.8942 12.2401 11.8189 12.2942 11.7671C12.9483 11.153 13.3577 10.2824 13.3577 9.3177C13.3577 7.42123 11.7765 5.88476 9.86359 5.96005C8.10359 6.02829 6.68242 7.46593 6.63536 9.22829C6.60948 10.2283 7.02359 11.1365 7.69654 11.7695C7.75301 11.8212 7.78124 11.8942 7.77654 11.9718C7.76242 12.2024 7.76712 12.4259 7.78359 12.6801C7.7883 12.7483 7.71301 12.7906 7.65654 12.753C6.54595 11.9953 5.82124 10.713 5.84006 9.26593C5.8683 7.06593 7.63301 5.25417 9.83065 5.16946C12.1954 5.07535 14.1507 6.97417 14.1507 9.3177ZM9.97654 3.1177C13.4048 3.10829 16.1977 5.89417 16.1977 9.32005C16.1977 12.0212 14.4612 14.3224 12.0471 15.1718C11.9883 15.193 11.9271 15.1436 11.9365 15.0824C11.9695 14.8706 11.9977 14.6565 12.0259 14.4471C12.0354 14.3742 12.0824 14.3083 12.1507 14.2801C14.0636 13.4448 15.4024 11.5365 15.4024 9.3224C15.4024 6.32476 12.9507 3.88946 9.9483 3.91535C7.01183 3.93417 4.61183 6.32946 4.58359 9.26593C4.56242 11.5036 5.9083 13.4353 7.83536 14.2777C7.90359 14.3083 7.95065 14.3718 7.96007 14.4448C7.9883 14.6542 8.01889 14.8683 8.04948 15.0801C8.05889 15.1412 7.99771 15.1906 7.93889 15.1695C5.50124 14.313 3.75536 11.9742 3.7883 9.24005C3.83301 5.86593 6.60006 3.12711 9.97654 3.1177ZM9.99301 10.8401C10.5412 10.8401 11.0071 11.0189 11.2707 11.2989C11.4095 11.4448 11.4824 11.593 11.5059 11.8071C11.5507 12.2189 11.5248 12.5742 11.4777 13.1412C11.4307 13.6824 11.3436 14.4024 11.2307 15.1365C11.1507 15.6589 11.0848 15.9412 11.0236 16.1436C10.9271 16.4706 10.5624 16.7577 9.99301 16.7577C9.42359 16.7577 9.06124 16.4706 8.96242 16.1436C8.90124 15.9412 8.83536 15.6589 8.75536 15.1365C8.64242 14.4024 8.55301 13.6824 8.5083 13.1412C8.45889 12.5742 8.43536 12.2189 8.48006 11.8071C8.50359 11.5953 8.57654 11.4448 8.71536 11.2989C8.97889 11.0189 9.44477 10.8401 9.99301 10.8401Z" fill="white"/>
</g>
<defs>
<linearGradient id="paint0_linear_809_7575" x1="10.0001" y1="0.352905" x2="10.0001" y2="19.647" gradientUnits="userSpaceOnUse">
<stop stop-color="#1ED760"/>
<stop offset="1" stop-color="#1ED760"/>
</linearGradient>
<clipPath id="clip0_809_7575">
<rect width="20" height="20" rx="10" fill="white"/>
</clipPath>
</defs>
</svg>
