<svg width="56" height="56" viewBox="0 0 56 56" fill="none" xmlns="http://www.w3.org/2000/svg">
<g clip-path="url(#clip0_45_1538)">
<path d="M51.7357 24.3703C52.1949 24.3705 52.5674 23.998 52.5674 23.5388V21.6839H52.97C53.4292 21.6839 53.8017 21.3115 53.8017 20.8522V17.3567C53.8017 16.8974 53.4292 16.525 52.97 16.525H52.5674V11.1024C52.5674 10.9309 52.5143 10.7635 52.4155 10.6233L48.348 4.85095V0.866529C48.348 0.411092 47.9971 0.0139512 47.5419 0.000388738C47.0709 -0.01383 46.6846 0.363842 46.6846 0.831748V4.85095L42.6172 10.6234C42.5184 10.7635 42.4654 10.9309 42.4654 11.1025V16.5251H42.0628C41.6035 16.5251 41.2311 16.8975 41.2311 17.3568V20.8522C41.2311 21.3115 41.6035 21.6839 42.0628 21.6839H42.4654V50.8413H42.0628C41.6035 50.8413 41.2311 51.2137 41.2311 51.673V55.1685C41.2311 55.6277 41.6035 56.0002 42.0628 56.0002H52.9701C53.4293 56.0002 53.8018 55.6277 53.8018 55.1685V51.6731C53.8018 51.2138 53.4293 50.8414 52.9701 50.8414H52.5675V27.42C52.5675 26.9608 52.195 26.5884 51.7358 26.5884C51.2765 26.5884 50.9041 26.9608 50.9041 27.42V50.8413H44.1288V21.6838H50.9041V23.5387C50.904 23.9979 51.2764 24.3703 51.7357 24.3703ZM44.1285 11.366H44.1286L47.5162 6.5584L50.9039 11.366V16.525H50.2903V14.2295C50.2903 13.9722 50.1711 13.7291 49.9675 13.5717L48.025 12.069C47.7254 11.8373 47.3069 11.8373 47.0073 12.069L45.0648 13.5717C44.8612 13.7292 44.742 13.9722 44.742 14.2295V16.525H44.1284V11.366H44.1285ZM48.6271 14.6376V16.525H46.4055V14.6376L47.5163 13.7784L48.6271 14.6376ZM51.7357 52.5047H52.1383V54.3367H42.8942V52.5047H43.2968H51.7357ZM42.8945 20.0204V18.1884H45.5739H49.4589H52.1385V20.0204H42.8945Z" fill="#009688"/>
<path d="M35.7802 39.0935L32.9329 36.8909C32.6332 36.6591 32.2147 36.6591 31.9151 36.8909L29.0678 39.0935C28.8643 39.251 28.7451 39.494 28.7451 39.7513V44.335C28.7451 44.7943 29.1175 45.1667 29.5767 45.1667H35.2714C35.7306 45.1667 36.103 44.7943 36.103 44.335V39.7513C36.1029 39.494 35.9837 39.251 35.7802 39.0935ZM30.4082 43.5033V40.1594L32.4238 38.6002L34.4393 40.1594V43.5033H30.4082Z" fill="#009688"/>
<path d="M13.2525 39.0935L10.4053 36.8909C10.1057 36.6591 9.68712 36.6591 9.38755 36.8909L6.54029 39.0935C6.33675 39.251 6.21753 39.4939 6.21753 39.7512V44.3349C6.21753 44.7942 6.58995 45.1666 7.04922 45.1666H12.7437C13.203 45.1666 13.5754 44.7942 13.5754 44.3349V39.7512C13.5753 39.4938 13.4561 39.251 13.2525 39.0935ZM11.9119 43.5032H7.8808V40.1593L9.89636 38.6001L11.9119 40.1593V43.5032Z" fill="#009688"/>
<path d="M39.8756 36.0712L36.183 32.4121C36.6619 31.7621 37.3635 30.654 37.7595 29.2984C37.7692 29.2649 37.777 29.2308 37.7826 29.1963L38.0638 27.4366C38.0702 27.3961 38.0736 27.3551 38.0741 27.3141C38.0854 26.2255 37.8296 25.1843 37.3123 24.2166C35.2808 20.4504 24.4232 15.4777 21.9918 14.4006V12.9671C24.6752 12.6288 26.8815 10.6709 27.5022 7.97473C27.5816 7.62987 27.434 7.27243 27.1344 7.08408C26.8348 6.89563 26.4486 6.91762 26.1723 7.13877C25.4538 7.71343 24.5878 8.01716 23.6677 8.01716C21.454 8.01716 19.6529 6.21619 19.6529 4.00244C19.6529 3.08238 19.9566 2.21635 20.5313 1.49787C20.7525 1.22148 20.7742 0.835382 20.586 0.535804C20.3975 0.236226 20.04 0.0885694 19.6954 0.167976C16.7252 0.851679 14.6506 3.45962 14.6506 6.51008C14.6506 9.81758 17.1307 12.5549 20.3286 12.9647V14.4003C19.2577 14.8785 16.6182 16.0859 13.8496 17.5712C8.93777 20.2061 5.96288 22.4424 5.00662 24.2194C4.49091 25.1843 4.23508 26.2255 4.24635 27.3142C4.24679 27.3552 4.25018 27.3962 4.25663 27.4368L4.53783 29.1965C4.54341 29.231 4.55107 29.2651 4.5608 29.2986C4.95696 30.6544 5.65838 31.7625 6.13733 32.4124L2.44462 36.0714C2.28701 36.2275 2.1983 36.4402 2.1983 36.6621V55.1685C2.1983 55.6278 2.57072 56.0002 3.02999 56.0002H39.2902C39.7495 56.0002 40.1219 55.6278 40.1219 55.1685V36.6619C40.1218 36.44 40.0331 36.2274 39.8756 36.0712ZM16.3138 6.50976C16.3138 4.98387 17.0109 3.60683 18.1388 2.71302C18.0403 3.1339 17.9894 3.56669 17.9894 4.00223C17.9894 7.13308 20.5366 9.68032 23.6676 9.68032C24.1032 9.68032 24.5361 9.62946 24.9568 9.53091C24.063 10.6589 22.686 11.3559 21.1601 11.3559C18.4879 11.3561 16.3138 9.18201 16.3138 6.50976ZM25.3444 54.3368H16.9757V45.6558L21.1601 41.3968L25.3444 45.6558V54.3368ZM38.4586 54.3368H38.4585H27.0077V45.3156C27.0077 45.0976 26.9221 44.8882 26.7693 44.7327L21.7667 39.6408C21.6844 39.557 21.5886 39.4858 21.4799 39.4415C21.1534 39.3087 20.7976 39.3923 20.5668 39.6272L15.5508 44.7328C15.398 44.8882 15.3124 45.0977 15.3124 45.3157V54.3368H3.86168V37.0088L7.59694 33.3073H15.2113C15.6706 33.3073 16.043 32.9349 16.043 32.4756C16.043 32.0163 15.6706 31.6439 15.2113 31.6439H7.64387C7.27833 31.1796 6.55427 30.1528 6.17179 28.8806L5.90918 27.2373C5.91005 26.4429 6.09479 25.7116 6.47235 25.0055C8.0456 22.0819 17.2987 17.5455 21.1566 15.8508C22.0614 16.2508 24.9599 17.5587 28.0154 19.2175C30.503 20.5679 34.8286 23.1157 35.8469 25.0036C36.2255 25.7118 36.4103 26.4431 36.4111 27.2374L36.1485 28.8807C35.7659 30.1533 35.0414 31.1804 34.6764 31.644H19.0927C18.6334 31.644 18.261 32.0164 18.261 32.4757C18.261 32.935 18.6334 33.3074 19.0927 33.3074H34.7234L38.4586 37.0089V54.3368Z" fill="#009688"/>
</g>
<defs>
<clipPath id="clip0_45_1538">
<rect width="56" height="56" fill="white"/>
</clipPath>
</defs>
</svg>
